<?xml version="1.0" encoding="utf-8"?>
<!-- Generator: Adobe Illustrator 22.1.0, SVG Export Plug-In . SVG Version: 6.00 Build 0)  -->
<svg version="1.0" id="Layer_1" xmlns="http://www.w3.org/2000/svg" xmlns:xlink="http://www.w3.org/1999/xlink" x="0px" y="0px"
	 width="24px" height="24px" viewBox="0 0 24 24" style="enable-background:new 0 0 24 24;" xml:space="preserve">
<path style="fill:#010101;" d="M21.9,16.9c-0.9-0.9-3.5-2.7-5.1-2.7c-0.4,0-0.7,0.1-1,0.3c-0.8,0.5-1.5,0.9-1.8,0.9
	c-0.2,0-0.4-0.2-0.8-0.5l-0.1-0.1c-1.1-1-1.4-1.2-1.8-1.7l-0.1-0.1C11.1,13,11,12.9,11,12.8c-0.4-0.4-0.7-0.7-1.6-1.8l0,0
	c-0.5-0.5-0.8-0.9-0.8-1.1c0-0.2,0.2-0.6,0.7-1.4c0.7-0.9,0.7-2,0.1-3.3c-0.5-1-1.3-2-2-2.8L7.3,2.3C6.7,1.5,6,1.1,5.2,1.1
	c-0.9,0-1.6,0.5-2,0.7c0,0-0.1,0-0.1,0.1C2.3,2.5,1.6,3.2,1.4,4C1,5.1,0.8,6.6,2.5,9.7c1.5,2.7,2.8,4.5,4.9,6.6c2,2,2.8,2.7,4.8,4.1
	c2.2,1.6,4.3,2.5,5.7,2.5c1.4,0,2.4,0,4-1.8C23.5,19.1,22.8,17.9,21.9,16.9z M21.2,20.3c-1.2,1.5-1.9,1.5-3.2,1.5
	c-1.3,0-3.2-0.9-5.2-2.3c-1.9-1.4-2.8-2-4.7-4c-2-2.1-3.3-3.8-4.7-6.4C1.9,6.4,2,5.3,2.3,4.3C2.5,3.8,3,3.2,3.6,2.8
	c0,0,0.1,0,0.1-0.1C4,2.5,4.6,2.2,5.2,2.2c0.5,0,0.9,0.2,1.4,0.8L6.6,3c1.6,1.9,2.8,3.6,1.9,4.9c-0.7,0.9-1,1.5-0.9,2.1
	c0,0.6,0.5,1,1.1,1.7l0,0c1,1.1,1.3,1.4,1.7,1.8c0.1,0.1,0.1,0.1,0.2,0.2l0.1,0.1c0.5,0.5,0.7,0.7,1.9,1.8l0.1,0.1
	c0.5,0.4,0.9,0.7,1.4,0.7c0.5,0,1.2-0.3,2.3-1.1c0.1-0.1,0.3-0.1,0.5-0.1c1.3,0,3.6,1.5,4.5,2.4C21.9,18.4,22.3,19,21.2,20.3z"/>
</svg>
